D:\school\WTK\thesis\model\3dpredictsim\Results\Batchsim_tmt_linear_v2\Pog_s1_tmt_aCst_d02_k2000_ig24_act_GRF.mot
nRows=15
nColumns=19

name D:\school\WTK\thesis\model\3dpredictsim\Results\Batchsim_tmt_linear_v2\Pog_s1_tmt_aCst_d02_k2000_ig24_act_GRF.mot
datacolumns 19
datarows 15
range 0.0000000000 0.1701521375
endheader
time 	ground_force_vx	ground_force_vy	ground_force_vz	ground_force_px	ground_force_py	ground_force_pz	1_ground_force_vx	1_ground_force_vy	1_ground_force_vz	1_ground_force_px	1_ground_force_py	1_ground_force_pz	ground_torque_x	ground_torque_y	ground_torque_z	1_ground_torque_x	1_ground_torque_y	1_ground_torque_z
        0.0000000000	      -33.0405522871	       23.8633040944	        3.6593327073	        0.1944804319	        0.0000000000	        0.0539341567	       79.5430273494	      342.1710604606	        3.3005193722	       -0.3554241913	        0.0000000000	       -0.0428332958	        0.0000000000	        0.0000000000	        0.0000000000	        0.0000000000	        0.0000000000	        0.0000000000	
        0.0121537241	      -97.3438253137	       82.3844723110	       13.2708683837	        0.2050821333	        0.0000000000	        0.0527160566	       32.1317030973	      224.1226477506	       -5.4087664222	       -0.3187418991	        0.0000000000	       -0.0369979881	        0.0000000000	        0.0000000000	        0.0000000000	        0.0000000000	        0.0000000000	        0.0000000000	
        0.0243074482	     -124.1925623419	      236.9073486415	       19.0080871320	        0.2121089134	        0.0000000000	        0.0518359212	       18.7725395138	      184.2852327147	      -11.8667446735	       -0.3108828305	        0.0000000000	       -0.0350121930	        0.0000000000	        0.0000000000	        0.0000000000	        0.0000000000	        0.0000000000	        0.0000000000	
        0.0364611723	      -88.2551239146	      490.3420150844	       -1.4701214284	        0.2169673080	        0.0000000000	        0.0516862063	       19.3837805843	      144.6417992147	      -12.1938677837	       -0.3102449339	        0.0000000000	       -0.0351229058	        0.0000000000	        0.0000000000	        0.0000000000	        0.0000000000	        0.0000000000	        0.0000000000	
        0.0486148964	     -127.2455641541	      779.6295293661	      -18.0096278286	        0.2277117137	        0.0000000000	        0.0539362337	       13.9729798337	       96.0705710623	      -12.3053469562	       -0.3097160906	        0.0000000000	       -0.0353727294	        0.0000000000	        0.0000000000	        0.0000000000	        0.0000000000	        0.0000000000	        0.0000000000	
        0.0607686205	     -180.0357500364	      984.2302311973	      -25.4511328918	        0.2371791280	        0.0000000000	        0.0561390251	        1.4186821701	       39.7082578462	       -7.7867593009	       -0.3099163113	        0.0000000000	       -0.0356067854	        0.0000000000	        0.0000000000	        0.0000000000	        0.0000000000	        0.0000000000	        0.0000000000	
        0.0729223446	     -186.6999894682	     1013.6077694280	      -26.2961582659	        0.2433378434	        0.0000000000	        0.0574196225	        0.3162318776	       -0.3230134109	        0.0109634267	        0.0000000000	        0.0000000000	        0.0000000000	        0.0000000000	        0.0000000000	        0.0000000000	        0.0000000000	        0.0000000000	        0.0000000000	
        0.0850760687	     -164.7499282498	      939.7947913536	      -23.9502115803	        0.2479015971	        0.0000000000	        0.0582293724	        0.0017850632	       -0.0014452429	       -0.0000931675	        0.0000000000	        0.0000000000	        0.0000000000	        0.0000000000	        0.0000000000	        0.0000000000	        0.0000000000	        0.0000000000	        0.0000000000	
        0.0972297928	     -141.4693175227	      849.9164125783	      -20.7977949171	        0.2520991416	        0.0000000000	        0.0587599030	        0.0044021874	       -0.0030432597	       -0.0002810221	        0.0000000000	        0.0000000000	        0.0000000000	        0.0000000000	        0.0000000000	        0.0000000000	        0.0000000000	        0.0000000000	        0.0000000000	
        0.1093835169	     -122.0938973515	      786.9046020903	      -18.4684792500	        0.2567732271	        0.0000000000	        0.0592092979	        0.0483767052	       -0.0297327766	       -0.0031258976	        0.0000000000	        0.0000000000	        0.0000000000	        0.0000000000	        0.0000000000	        0.0000000000	        0.0000000000	        0.0000000000	        0.0000000000	
        0.1215372410	     -111.0071906948	      748.5013560281	      -17.4180132783	        0.2628186960	        0.0000000000	        0.0593369207	       -0.3294640890	        0.1854801349	        0.0201145579	        0.0000000000	        0.0000000000	        0.0000000000	        0.0000000000	        0.0000000000	        0.0000000000	        0.0000000000	        0.0000000000	        0.0000000000	
        0.1336909652	     -100.6985249193	      717.1474370445	      -16.6830081849	        0.2686824084	        0.0000000000	        0.0591647655	       -0.2453384452	        0.1290186814	        0.0138432175	        0.0000000000	        0.0000000000	        0.0000000000	        0.0000000000	        0.0000000000	        0.0000000000	        0.0000000000	        0.0000000000	        0.0000000000	
        0.1458446893	      -90.4315726861	      686.6437217217	      -16.4598591526	        0.2737951041	        0.0000000000	        0.0589573738	       -0.1546850882	        0.0775084946	        0.0075251398	        0.0000000000	        0.0000000000	        0.0000000000	        0.0000000000	        0.0000000000	        0.0000000000	        0.0000000000	        0.0000000000	        0.0000000000	
        0.1579984134	      -80.9538025557	      661.0414357425	      -16.4588740678	        0.2785259564	        0.0000000000	        0.0586844124	       -0.1129493441	        0.0543375962	        0.0047381321	        0.0000000000	        0.0000000000	        0.0000000000	        0.0000000000	        0.0000000000	        0.0000000000	        0.0000000000	        0.0000000000	        0.0000000000	
        0.1701521375	      -72.5089812847	      640.4144788518	      -16.8832926342	        0.2829899384	        0.0000000000	        0.0583989953	       -0.1026298415	        0.0477288316	        0.0037337644	        0.0000000000	        0.0000000000	        0.0000000000	        0.0000000000	        0.0000000000	        0.0000000000	        0.0000000000	        0.0000000000	        0.0000000000	
